<svg width="512" height="512" viewBox="0 0 512 512" fill="none" xmlns="http://www.w3.org/2000/svg">
<rect width="512" height="512" fill="black"/>
<path d="M220.17 293.541L241.303 329.905C241.373 330.024 241.411 330.159 241.411 330.297C241.411 330.435 241.373 330.57 241.303 330.689L209.155 385.562C209.088 385.678 208.992 385.774 208.875 385.842C208.759 385.909 208.627 385.944 208.493 385.944C208.358 385.944 208.226 385.909 208.11 385.842C207.994 385.774 207.897 385.678 207.83 385.562L89.0972 175.138C89.032 175.021 88.9985 174.89 89.0001 174.756C89.0016 174.622 89.0382 174.491 89.1062 174.376C89.1742 174.261 89.2712 174.166 89.3876 174.1C89.5039 174.034 89.6355 173.999 89.7693 174H132.969C133.105 173.999 133.24 174.035 133.358 174.104C133.476 174.173 133.574 174.272 133.641 174.392L207.886 306.956C207.949 307.071 208.041 307.168 208.153 307.237C208.265 307.306 208.392 307.346 208.524 307.351C208.655 307.357 208.785 307.329 208.903 307.269C209.02 307.21 209.12 307.121 209.193 307.012L218.882 293.485C218.956 293.38 219.055 293.295 219.17 293.239C219.285 293.182 219.413 293.155 219.541 293.161C219.669 293.166 219.794 293.204 219.904 293.271C220.014 293.337 220.105 293.43 220.17 293.541Z" fill="white"/>
<path d="M327.234 213.853L363.358 279.958C363.423 280.076 363.455 280.209 363.452 280.343C363.448 280.477 363.41 280.608 363.34 280.723L299.138 385.618C299.071 385.734 298.974 385.83 298.858 385.898C298.742 385.965 298.61 386 298.475 386C298.341 386 298.209 385.965 298.093 385.898C297.977 385.83 297.88 385.734 297.813 385.618L175.029 175.157C174.96 175.041 174.923 174.909 174.921 174.774C174.919 174.639 174.954 174.506 175.02 174.389C175.086 174.271 175.182 174.174 175.299 174.105C175.415 174.037 175.547 174.001 175.682 174H218.639C218.776 173.999 218.91 174.035 219.029 174.104C219.147 174.173 219.244 174.272 219.311 174.392L298.597 313.524C298.664 313.64 298.761 313.736 298.877 313.804C298.993 313.871 299.125 313.906 299.26 313.906C299.394 313.906 299.526 313.871 299.642 313.804C299.758 313.736 299.855 313.64 299.922 313.524L319.431 280.723C319.501 280.608 319.54 280.477 319.543 280.343C319.546 280.209 319.514 280.076 319.45 279.958L261.782 175.138C261.717 175.021 261.683 174.89 261.685 174.756C261.687 174.622 261.723 174.491 261.791 174.376C261.859 174.261 261.956 174.166 262.073 174.1C262.189 174.034 262.321 173.999 262.454 174H421.324C421.458 173.999 421.59 174.034 421.706 174.1C421.823 174.166 421.92 174.261 421.988 174.376C422.056 174.491 422.092 174.622 422.094 174.756C422.095 174.89 422.062 175.021 421.997 175.138L384.865 242.568C384.801 242.683 384.709 242.78 384.598 242.849C384.486 242.918 384.358 242.957 384.227 242.963C384.096 242.969 383.965 242.94 383.848 242.881C383.731 242.821 383.631 242.733 383.558 242.624L363.881 212.976C363.811 212.873 363.716 212.788 363.606 212.729C363.495 212.671 363.371 212.64 363.246 212.64L327.907 212.715C327.773 212.714 327.641 212.749 327.525 212.815C327.408 212.881 327.311 212.976 327.243 213.091C327.175 213.206 327.139 213.337 327.137 213.471C327.136 213.605 327.169 213.737 327.234 213.853Z" fill="white"/>
</svg>
